# xmcd
# Copyright (c) 1998 CDDB Inc.
#
# Track frame offsets:
#	150
#	20284
#	43311
#	70194
#	95631
#	122402
#	167899
#
# Disc length: 2670 seconds
#
# Revision: 1
# Processed by: cddbd v1.5.1PL0 Copyright (c) Steve Scherf et al.
# Submitted via: AudioCatalyst 2.10full
#
DISCID=590a6c07
DTITLE=O.H. Radish Golden Rules - vody objali menja tselikom do dushi mojey
DYEAR=2003
DGENRE=R&B
TTITLE0=Dhin illjuziy
TTITLE1=Novosti
TTITLE2=Zhaba
TTITLE3=Kukaracha dlja R. Bernsa
TTITLE4=Rita Li
TTITLE5=Kitajskij blues
TTITLE6=Vse i nichego live
EXTD=2003
EXTT0=
EXTT1=
EXTT2=
EXTT3=
EXTT4=
EXTT5=
EXTT6=
PLAYORDER=
